<?xml version="1.0" standalone="no"?><!DOCTYPE svg PUBLIC "-//W3C//DTD SVG 1.1//EN" "http://www.w3.org/Graphics/SVG/1.1/DTD/svg11.dtd"><svg t="1621076943839" class="icon" viewBox="0 0 1024 1024" version="1.1" xmlns="http://www.w3.org/2000/svg" p-id="1139" xmlns:xlink="http://www.w3.org/1999/xlink" width="16" height="16"><defs><style type="text/css"></style></defs><path d="M736 881.28h-448c-70.613333 0-128-49.28-128-109.653333V420.053333c0-60.373333 57.386667-109.653333 128-109.653333h448c70.613333 0 128 49.066667 128 109.653333v250.88a42.666667 42.666667 0 1 1-85.333333 0V420.053333c0-9.813333-16.64-24.32-42.666667-24.32h-448c-26.026667 0-42.666667 14.293333-42.666667 24.32v351.573334c0 9.813333 16.64 24.32 42.666667 24.32h448a42.666667 42.666667 0 0 1 0 85.333333z" fill="#515151" p-id="1140"></path><path d="M704 702.506667m-30.169889 30.169889a42.666667 42.666667 0 1 0 60.339778-60.339779 42.666667 42.666667 0 1 0-60.339778 60.339779Z" fill="#1296db" p-id="1141"></path><path d="M598.613333 309.12A32 32 0 0 1 576 254.506667l90.88-90.88a32 32 0 0 1 45.226667 45.226666l-90.88 90.88a31.786667 31.786667 0 0 1-22.613334 9.386667zM426.666667 307.84a31.786667 31.786667 0 0 1-22.613334-9.173333L313.6 208a32 32 0 1 1 45.226667-45.226667l90.453333 90.453334A32 32 0 0 1 426.666667 307.84zM594.986667 564.906667L481.92 512a34.133333 34.133333 0 0 0-48.64 30.933333v105.6a34.133333 34.133333 0 0 0 48.64 30.933334l113.066667-52.693334a34.133333 34.133333 0 0 0 0-61.866666z" fill="#1296db" p-id="1142"></path></svg>