<?xml version="1.0" standalone="no"?><!DOCTYPE svg PUBLIC "-//W3C//DTD SVG 1.1//EN" "http://www.w3.org/Graphics/SVG/1.1/DTD/svg11.dtd"><svg t="1621076909358" class="icon" viewBox="0 0 1024 1024" version="1.1" xmlns="http://www.w3.org/2000/svg" p-id="848" xmlns:xlink="http://www.w3.org/1999/xlink" width="16" height="16"><defs><style type="text/css"></style></defs><path d="M357.69863 322.630137m-322.630137 0a322.630137 322.630137 0 1 0 645.260274 0 322.630137 322.630137 0 1 0-645.260274 0Z" fill="#8CF6FB" p-id="849"></path><path d="M962.125151 330.766027a63.123288 63.123288 0 0 1 24.505863 49.741151l1.753424 544.613699a91.178082 91.178082 0 0 1-90.897534 91.472657H126.246575a91.178082 91.178082 0 0 1-91.178082-91.178082v-0.589151l3.548932-544.487452a63.123288 63.123288 0 0 1 24.51989-49.530739L474.041863 13.185753a63.123288 63.123288 0 0 1 77.206795 0l410.862465 317.580274zM108.712329 384.210411L105.205479 925.275178v0.140274a21.041096 21.041096 0 0 0 21.041096 21.041096h771.029918a21.041096 21.041096 0 0 0 20.970959-21.111233l-1.739397-541.176986-403.848767-312.179726L108.712329 384.210411z" fill="#515151" p-id="850"></path><path d="M469.917808 462.90411m35.068493 0l0 0q35.068493 0 35.068494 35.068493l0 210.410959q0 35.068493-35.068494 35.068493l0 0q-35.068493 0-35.068493-35.068493l0-210.410959q0-35.068493 35.068493-35.068493Z" fill="#D098FF" p-id="851"></path></svg>